<svg width="37" height="30" viewBox="0 0 37 30" fill="none" xmlns="http://www.w3.org/2000/svg">
<path d="M18.7229 20.5713C18.7229 21.5428 18.5286 22.3964 18.1401 23.1303C17.7507 23.8647 17.2167 24.4802 16.5361 24.9765C15.8557 25.4738 15.0672 25.8512 14.1714 26.1102C13.2751 26.3696 12.3192 26.4989 11.3047 26.4989H0.193604V3.5H12.503C13.302 3.5 14.0259 3.67298 14.6738 4.01843C15.3214 4.36439 15.8723 4.81192 16.3256 5.36254C16.7792 5.9134 17.1299 6.5402 17.3786 7.24167C17.6267 7.94364 17.7507 8.65064 17.7507 9.36342C17.7507 10.486 17.4698 11.5392 16.9089 12.5215C16.3467 13.5043 15.5266 14.233 14.4467 14.7079C15.7642 15.0963 16.8058 15.7933 17.5729 16.7972C18.339 17.8017 18.7232 19.0598 18.7232 20.5713H18.7229ZM4.66414 7.32262V13.1209H10.6246C11.3804 13.1209 12.0228 12.8615 12.552 12.3433C13.0805 11.8253 13.3455 11.1126 13.3455 10.2057C13.3455 9.2988 13.1026 8.61845 12.6164 8.10002C12.1309 7.58184 11.5315 7.32262 10.8187 7.32262H4.66414ZM14.2202 19.7291C14.2202 19.319 14.1498 18.9248 14.0095 18.5469C13.8692 18.1695 13.6799 17.8399 13.4428 17.5588C13.2052 17.2782 12.9246 17.0567 12.6005 16.8948C12.2767 16.7329 11.9204 16.6519 11.5315 16.6519H4.66414V22.7092H11.305C11.715 22.7092 12.0987 22.6337 12.455 22.4824C12.8115 22.3315 13.119 22.1208 13.3784 21.8508C13.6377 21.581 13.8426 21.2625 13.9939 20.8952C14.1448 20.5283 14.2205 20.1396 14.2205 19.7291H14.2202Z" fill="white"/>
<path d="M28.4057 26.4995C27.0878 26.4995 25.8953 26.2744 24.8277 25.8246C22.7135 24.9245 21.2226 23.4127 20.3552 21.2892C19.9471 20.2642 19.7432 19.1863 19.7432 18.0564C19.7432 16.9266 19.9418 15.7811 20.3396 14.745C21.1917 12.5943 22.6826 11.0619 24.8121 10.1467C25.8897 9.6871 27.0981 9.45654 28.4374 9.45654C29.7767 9.45654 30.9742 9.6871 32.031 10.1467C35.5046 11.6613 37.1409 15.0273 36.9903 18.6842C36.9795 18.9352 36.9531 19.1448 36.9118 19.312H24.1997C24.2623 19.9607 24.4192 20.536 24.6706 21.0381C24.9218 21.5404 25.2458 21.9696 25.6436 22.3251C26.0408 22.6809 26.4909 22.9529 26.9935 23.141C27.4956 23.3293 28.018 23.4236 28.5629 23.4236C29.3991 23.4236 30.1893 23.2194 30.9323 22.8113C31.6752 22.4033 32.1828 21.8652 32.4546 21.1952L36.064 22.1996C35.4571 23.4552 34.4896 24.4861 33.1609 25.2914C31.8321 26.0972 30.2469 26.4997 28.4057 26.4997V26.4995ZM32.6751 16.5813C32.57 15.3469 32.1149 14.358 31.3094 13.6153C30.5036 12.8729 29.5253 12.501 28.3748 12.501C27.8098 12.501 27.2814 12.6006 26.7896 12.7992C26.2975 12.9983 25.8636 13.2754 25.487 13.6309C25.1103 13.9872 24.8016 14.4153 24.561 14.9179C24.3201 15.4198 24.1791 15.9749 24.1376 16.5811H32.6751V16.5816V16.5813Z" fill="white"/>
<path d="M22.8717 4.5918H33.8772V7.32249H22.8717V4.5918Z" fill="white"/>
</svg>
