<svg width="2520" height="100" viewBox="0 0 2520 100" fill="none" xmlns="http://www.w3.org/2000/svg">
<rect width="2520" height="100" fill="url(#paint0_linear_1786_341)"/>
<path d="M73.517 59V41.5455H85.2784V44.5881H77.2074V48.7472H84.6733V51.7898H77.2074V55.9574H85.3125V59H73.517ZM94.3999 59H88.2124V41.5455H94.451C96.2067 41.5455 97.718 41.8949 98.9851 42.5938C100.252 43.2869 101.227 44.2841 101.908 45.5852C102.596 46.8864 102.94 48.4432 102.94 50.2557C102.94 52.0739 102.596 53.6364 101.908 54.9432C101.227 56.25 100.246 57.2528 98.968 57.9517C97.6953 58.6506 96.1726 59 94.3999 59ZM91.9027 55.8381H94.2464C95.3374 55.8381 96.255 55.6449 96.9993 55.2585C97.7493 54.8665 98.3118 54.2614 98.6868 53.4432C99.0675 52.6193 99.2578 51.5568 99.2578 50.2557C99.2578 48.9659 99.0675 47.9119 98.6868 47.0938C98.3118 46.2756 97.7521 45.6733 97.0078 45.2869C96.2635 44.9006 95.3459 44.7074 94.255 44.7074H91.9027V55.8381ZM111.861 59H105.673V41.5455H111.912C113.668 41.5455 115.179 41.8949 116.446 42.5938C117.713 43.2869 118.688 44.2841 119.369 45.5852C120.057 46.8864 120.401 48.4432 120.401 50.2557C120.401 52.0739 120.057 53.6364 119.369 54.9432C118.688 56.25 117.707 57.2528 116.429 57.9517C115.156 58.6506 113.634 59 111.861 59ZM109.364 55.8381H111.707C112.798 55.8381 113.716 55.6449 114.46 55.2585C115.21 54.8665 115.773 54.2614 116.148 53.4432C116.528 52.6193 116.719 51.5568 116.719 50.2557C116.719 48.9659 116.528 47.9119 116.148 47.0938C115.773 46.2756 115.213 45.6733 114.469 45.2869C113.724 44.9006 112.807 44.7074 111.716 44.7074H109.364V55.8381ZM121.057 41.5455H125.19L129.17 49.0625H129.341L133.321 41.5455H137.455L131.088 52.8295V59H127.423V52.8295L121.057 41.5455ZM139.884 59.2216C139.321 59.2216 138.838 59.0227 138.435 58.625C138.037 58.2216 137.838 57.7386 137.838 57.1761C137.838 56.6193 138.037 56.142 138.435 55.7443C138.838 55.3466 139.321 55.1477 139.884 55.1477C140.429 55.1477 140.906 55.3466 141.315 55.7443C141.724 56.142 141.929 56.6193 141.929 57.1761C141.929 57.5511 141.832 57.8949 141.639 58.2074C141.452 58.5142 141.205 58.7614 140.898 58.9489C140.591 59.1307 140.253 59.2216 139.884 59.2216ZM143.493 44.5881V41.5455H157.828V44.5881H152.484V59H148.837V44.5881H143.493ZM163.879 41.5455V59H160.189V41.5455H163.879ZM182.955 50.2727C182.955 52.1761 182.594 53.7955 181.873 55.1307C181.157 56.4659 180.18 57.4858 178.941 58.1903C177.708 58.8892 176.322 59.2386 174.782 59.2386C173.231 59.2386 171.839 58.8864 170.606 58.1818C169.373 57.4773 168.398 56.4574 167.683 55.1222C166.967 53.7869 166.609 52.1705 166.609 50.2727C166.609 48.3693 166.967 46.75 167.683 45.4148C168.398 44.0795 169.373 43.0625 170.606 42.3636C171.839 41.6591 173.231 41.3068 174.782 41.3068C176.322 41.3068 177.708 41.6591 178.941 42.3636C180.18 43.0625 181.157 44.0795 181.873 45.4148C182.594 46.75 182.955 48.3693 182.955 50.2727ZM179.214 50.2727C179.214 49.0398 179.029 48 178.66 47.1534C178.296 46.3068 177.782 45.6648 177.117 45.2273C176.452 44.7898 175.674 44.571 174.782 44.571C173.89 44.571 173.112 44.7898 172.447 45.2273C171.782 45.6648 171.265 46.3068 170.896 47.1534C170.532 48 170.35 49.0398 170.35 50.2727C170.35 51.5057 170.532 52.5455 170.896 53.392C171.265 54.2386 171.782 54.8807 172.447 55.3182C173.112 55.7557 173.89 55.9744 174.782 55.9744C175.674 55.9744 176.452 55.7557 177.117 55.3182C177.782 54.8807 178.296 54.2386 178.66 53.392C179.029 52.5455 179.214 51.5057 179.214 50.2727ZM200.288 41.5455V59H197.101L189.507 48.0142H189.379V59H185.689V41.5455H188.928L196.462 52.5227H196.615V41.5455H200.288Z" fill="white"/>
<path d="M896.835 59L891.994 41.5455H894.764L898.165 55.0625H898.327L901.864 41.5455H904.608L908.145 55.071H908.307L911.699 41.5455H914.477L909.628 59H906.977L903.304 45.9261H903.168L899.494 59H896.835ZM920.899 59.2642C919.672 59.2642 918.601 58.983 917.686 58.4205C916.771 57.858 916.061 57.071 915.555 56.0597C915.05 55.0483 914.797 53.8665 914.797 52.5142C914.797 51.1562 915.05 49.9687 915.555 48.9517C916.061 47.9347 916.771 47.1449 917.686 46.5824C918.601 46.0199 919.672 45.7386 920.899 45.7386C922.126 45.7386 923.197 46.0199 924.112 46.5824C925.027 47.1449 925.737 47.9347 926.243 48.9517C926.749 49.9687 927.001 51.1562 927.001 52.5142C927.001 53.8665 926.749 55.0483 926.243 56.0597C925.737 57.071 925.027 57.858 924.112 58.4205C923.197 58.983 922.126 59.2642 920.899 59.2642ZM920.908 57.125C921.703 57.125 922.362 56.9148 922.885 56.4943C923.408 56.0739 923.794 55.5142 924.044 54.8153C924.3 54.1165 924.428 53.3466 924.428 52.5057C924.428 51.6705 924.3 50.9034 924.044 50.2045C923.794 49.5 923.408 48.9347 922.885 48.5085C922.362 48.0824 921.703 47.8693 920.908 47.8693C920.107 47.8693 919.442 48.0824 918.913 48.5085C918.391 48.9347 918.001 49.5 917.746 50.2045C917.496 50.9034 917.371 51.6705 917.371 52.5057C917.371 53.3466 917.496 54.1165 917.746 54.8153C918.001 55.5142 918.391 56.0739 918.913 56.4943C919.442 56.9148 920.107 57.125 920.908 57.125ZM929.846 59V45.9091H932.309V47.9886H932.445C932.684 47.2841 933.104 46.7301 933.707 46.3267C934.315 45.9176 935.002 45.7131 935.769 45.7131C935.928 45.7131 936.116 45.7187 936.332 45.7301C936.553 45.7415 936.727 45.7557 936.852 45.7727V48.2102C936.749 48.1818 936.567 48.1506 936.306 48.1165C936.045 48.0767 935.783 48.0568 935.522 48.0568C934.92 48.0568 934.383 48.1847 933.911 48.4403C933.445 48.6903 933.076 49.0398 932.803 49.4886C932.531 49.9318 932.394 50.4375 932.394 51.0057V59H929.846ZM941.401 54.5597L941.384 51.4489H941.827L947.043 45.9091H950.094L944.145 52.2159H943.744L941.401 54.5597ZM939.057 59V41.5455H941.605V59H939.057ZM947.324 59L942.636 52.7784L944.392 50.9972L950.452 59H947.324Z" fill="white"/>
<path d="M1253.42 59V41.5455H1259.64C1261 41.5455 1262.12 41.7926 1263.01 42.2869C1263.91 42.7812 1264.57 43.4574 1265.02 44.3153C1265.46 45.1676 1265.68 46.1278 1265.68 47.196C1265.68 48.2699 1265.46 49.2358 1265.01 50.0938C1264.57 50.946 1263.89 51.6222 1263 52.1222C1262.11 52.6165 1260.98 52.8636 1259.63 52.8636H1255.35V50.6307H1259.39C1260.25 50.6307 1260.95 50.483 1261.48 50.1875C1262.01 49.8864 1262.41 49.4773 1262.66 48.9602C1262.91 48.4432 1263.03 47.8551 1263.03 47.196C1263.03 46.5369 1262.91 45.9517 1262.66 45.4403C1262.41 44.929 1262.01 44.5284 1261.47 44.2386C1260.94 43.9489 1260.23 43.804 1259.36 43.804H1256.05V59H1253.42ZM1271.11 41.5455V59H1268.56V41.5455H1271.11ZM1278.35 59.2898C1277.52 59.2898 1276.77 59.1364 1276.1 58.8295C1275.43 58.517 1274.9 58.0653 1274.51 57.4744C1274.12 56.8835 1273.93 56.1591 1273.93 55.3011C1273.93 54.5625 1274.07 53.9545 1274.35 53.4773C1274.64 53 1275.02 52.6222 1275.5 52.3438C1275.99 52.0653 1276.53 51.8551 1277.12 51.7131C1277.72 51.571 1278.33 51.4631 1278.95 51.3892C1279.73 51.2983 1280.37 51.2244 1280.86 51.1676C1281.35 51.1051 1281.7 51.0057 1281.92 50.8693C1282.14 50.733 1282.25 50.5114 1282.25 50.2045V50.1449C1282.25 49.4006 1282.04 48.8239 1281.62 48.4148C1281.21 48.0057 1280.59 47.8011 1279.77 47.8011C1278.91 47.8011 1278.23 47.9915 1277.74 48.3722C1277.25 48.7472 1276.91 49.1648 1276.72 49.625L1274.33 49.0795C1274.61 48.2841 1275.03 47.642 1275.57 47.1534C1276.12 46.6591 1276.76 46.3011 1277.47 46.0795C1278.19 45.8523 1278.94 45.7386 1279.73 45.7386C1280.25 45.7386 1280.81 45.8011 1281.39 45.9261C1281.98 46.0455 1282.54 46.267 1283.05 46.5909C1283.56 46.9148 1283.99 47.3778 1284.32 47.9801C1284.65 48.5767 1284.81 49.3523 1284.81 50.3068V59H1282.32V57.2102H1282.22C1282.06 57.5398 1281.81 57.8636 1281.48 58.1818C1281.15 58.5 1280.73 58.7642 1280.21 58.9744C1279.69 59.1847 1279.07 59.2898 1278.35 59.2898ZM1278.9 57.2443C1279.61 57.2443 1280.21 57.1051 1280.71 56.8267C1281.22 56.5483 1281.6 56.1847 1281.86 55.7358C1282.13 55.2812 1282.26 54.7955 1282.26 54.2784V52.5909C1282.17 52.6818 1282 52.767 1281.73 52.8466C1281.48 52.9205 1281.19 52.9858 1280.86 53.0426C1280.53 53.0937 1280.21 53.142 1279.89 53.1875C1279.58 53.2273 1279.32 53.2614 1279.11 53.2898C1278.62 53.3523 1278.16 53.4574 1277.75 53.6051C1277.35 53.7528 1277.03 53.9659 1276.78 54.2443C1276.54 54.517 1276.42 54.8807 1276.42 55.3352C1276.42 55.9659 1276.66 56.4432 1277.12 56.767C1277.59 57.0852 1278.18 57.2443 1278.9 57.2443ZM1289.35 63.9091C1288.97 63.9091 1288.62 63.8778 1288.31 63.8153C1288 63.7585 1287.76 63.696 1287.61 63.6278L1288.22 61.5398C1288.69 61.6648 1289.1 61.7188 1289.47 61.7017C1289.83 61.6847 1290.15 61.5483 1290.43 61.2926C1290.71 61.0369 1290.96 60.6193 1291.18 60.0398L1291.5 59.1705L1286.71 45.9091H1289.43L1292.75 56.0682H1292.88L1296.2 45.9091H1298.94L1293.54 60.7472C1293.29 61.429 1292.97 62.0057 1292.59 62.4773C1292.2 62.9545 1291.74 63.3125 1291.21 63.5511C1290.67 63.7898 1290.05 63.9091 1289.35 63.9091Z" fill="white"/>
<path d="M1603.89 59H1601.1L1607.38 41.5455H1610.42L1616.7 59H1613.91L1608.97 44.7159H1608.84L1603.89 59ZM1604.36 52.1648H1613.43V54.3807H1604.36V52.1648ZM1619.22 59V41.5455H1621.77V48.0312H1621.92C1622.07 47.7585 1622.28 47.4432 1622.56 47.0852C1622.84 46.7273 1623.23 46.4148 1623.72 46.1477C1624.22 45.875 1624.87 45.7386 1625.68 45.7386C1626.74 45.7386 1627.68 46.0057 1628.51 46.5398C1629.34 47.0739 1629.99 47.8437 1630.46 48.8494C1630.94 49.8551 1631.18 51.0653 1631.18 52.4801C1631.18 53.8949 1630.94 55.108 1630.47 56.1193C1630 57.125 1629.35 57.9006 1628.53 58.446C1627.71 58.9858 1626.76 59.2557 1625.71 59.2557C1624.91 59.2557 1624.26 59.1222 1623.76 58.8551C1623.26 58.5881 1622.86 58.2756 1622.58 57.9176C1622.3 57.5597 1622.08 57.2415 1621.92 56.9631H1621.71V59H1619.22ZM1621.72 52.4545C1621.72 53.375 1621.85 54.1818 1622.12 54.875C1622.39 55.5682 1622.77 56.1108 1623.28 56.5028C1623.78 56.8892 1624.4 57.0824 1625.14 57.0824C1625.9 57.0824 1626.53 56.8807 1627.05 56.4773C1627.56 56.0682 1627.94 55.5142 1628.21 54.8153C1628.47 54.1165 1628.61 53.3295 1628.61 52.4545C1628.61 51.5909 1628.48 50.8153 1628.21 50.1278C1627.96 49.4403 1627.57 48.8977 1627.05 48.5C1626.54 48.1023 1625.9 47.9034 1625.14 47.9034C1624.4 47.9034 1623.77 48.0937 1623.26 48.4744C1622.76 48.8551 1622.37 49.3864 1622.11 50.0682C1621.85 50.75 1621.72 51.5455 1621.72 52.4545ZM1639.56 59.2642C1638.33 59.2642 1637.26 58.983 1636.34 58.4205C1635.43 57.858 1634.72 57.071 1634.21 56.0597C1633.71 55.0483 1633.45 53.8665 1633.45 52.5142C1633.45 51.1562 1633.71 49.9687 1634.21 48.9517C1634.72 47.9347 1635.43 47.1449 1636.34 46.5824C1637.26 46.0199 1638.33 45.7386 1639.56 45.7386C1640.78 45.7386 1641.85 46.0199 1642.77 46.5824C1643.68 47.1449 1644.39 47.9347 1644.9 48.9517C1645.4 49.9687 1645.66 51.1562 1645.66 52.5142C1645.66 53.8665 1645.4 55.0483 1644.9 56.0597C1644.39 57.071 1643.68 57.858 1642.77 58.4205C1641.85 58.983 1640.78 59.2642 1639.56 59.2642ZM1639.56 57.125C1640.36 57.125 1641.02 56.9148 1641.54 56.4943C1642.06 56.0739 1642.45 55.5142 1642.7 54.8153C1642.96 54.1165 1643.08 53.3466 1643.08 52.5057C1643.08 51.6705 1642.96 50.9034 1642.7 50.2045C1642.45 49.5 1642.06 48.9347 1641.54 48.5085C1641.02 48.0824 1640.36 47.8693 1639.56 47.8693C1638.76 47.8693 1638.1 48.0824 1637.57 48.5085C1637.05 48.9347 1636.66 49.5 1636.4 50.2045C1636.15 50.9034 1636.03 51.6705 1636.03 52.5057C1636.03 53.3466 1636.15 54.1165 1636.4 54.8153C1636.66 55.5142 1637.05 56.0739 1637.57 56.4943C1638.1 56.9148 1638.76 57.125 1639.56 57.125ZM1656.79 53.571V45.9091H1659.35V59H1656.85V56.733H1656.71C1656.41 57.4318 1655.93 58.0142 1655.26 58.4801C1654.6 58.9403 1653.78 59.1705 1652.8 59.1705C1651.96 59.1705 1651.21 58.9858 1650.56 58.6165C1649.92 58.2415 1649.42 57.6875 1649.05 56.9545C1648.68 56.2216 1648.5 55.3153 1648.5 54.2358V45.9091H1651.05V53.929C1651.05 54.821 1651.3 55.5312 1651.79 56.0597C1652.29 56.5881 1652.93 56.8523 1653.72 56.8523C1654.2 56.8523 1654.67 56.733 1655.14 56.4943C1655.62 56.2557 1656.01 55.8949 1656.33 55.4119C1656.64 54.929 1656.8 54.3153 1656.79 53.571ZM1668.89 45.9091V47.9545H1661.74V45.9091H1668.89ZM1663.65 42.7727H1666.2V55.1562C1666.2 55.6506 1666.28 56.0227 1666.42 56.2727C1666.57 56.517 1666.76 56.6847 1666.99 56.7756C1667.23 56.8608 1667.49 56.9034 1667.77 56.9034C1667.97 56.9034 1668.15 56.8892 1668.31 56.8608C1668.46 56.8324 1668.58 56.8097 1668.66 56.7926L1669.12 58.8977C1668.98 58.9545 1668.77 59.0114 1668.49 59.0682C1668.22 59.1307 1667.88 59.1648 1667.47 59.1705C1666.8 59.1818 1666.18 59.0625 1665.6 58.8125C1665.02 58.5625 1664.55 58.1761 1664.19 57.6534C1663.83 57.1307 1663.65 56.4744 1663.65 55.6847V42.7727Z" fill="white"/>
<rect x="2361.41" y="39.4107" width="27.1785" height="27.1785" rx="7.01536" stroke="white" stroke-width="2.8215"/>
<circle cx="2375.01" cy="53.0095" r="6.37236" stroke="white" stroke-width="2.72553"/>
<circle cx="2383.03" cy="44.9865" r="1.81382" fill="white" stroke="white" stroke-width="0.0191939"/>
<path d="M2428.72 58.5713C2428.72 59.5428 2428.53 60.3964 2428.14 61.1303C2427.75 61.8647 2427.22 62.4802 2426.54 62.9765C2425.86 63.4738 2425.07 63.8512 2424.17 64.1102C2423.28 64.3696 2422.32 64.4989 2421.3 64.4989H2410.19V41.5H2422.5C2423.3 41.5 2424.03 41.673 2424.67 42.0184C2425.32 42.3644 2425.87 42.8119 2426.33 43.3625C2426.78 43.9134 2427.13 44.5402 2427.38 45.2417C2427.63 45.9436 2427.75 46.6506 2427.75 47.3634C2427.75 48.486 2427.47 49.5392 2426.91 50.5215C2426.35 51.5043 2425.53 52.233 2424.45 52.7079C2425.76 53.0963 2426.81 53.7933 2427.57 54.7972C2428.34 55.8017 2428.72 57.0598 2428.72 58.5713H2428.72ZM2414.66 45.3226V51.1209H2420.62C2421.38 51.1209 2422.02 50.8615 2422.55 50.3433C2423.08 49.8253 2423.35 49.1126 2423.35 48.2057C2423.35 47.2988 2423.1 46.6185 2422.62 46.1C2422.13 45.5818 2421.53 45.3226 2420.82 45.3226H2414.66ZM2424.22 57.7291C2424.22 57.319 2424.15 56.9248 2424.01 56.5469C2423.87 56.1695 2423.68 55.8399 2423.44 55.5588C2423.21 55.2782 2422.92 55.0567 2422.6 54.8948C2422.28 54.7329 2421.92 54.6519 2421.53 54.6519H2414.66V60.7092H2421.3C2421.72 60.7092 2422.1 60.6337 2422.45 60.4824C2422.81 60.3315 2423.12 60.1208 2423.38 59.8508C2423.64 59.581 2423.84 59.2625 2423.99 58.8952C2424.14 58.5283 2424.22 58.1396 2424.22 57.7291H2424.22Z" fill="white"/>
<path d="M2438.41 64.499C2437.09 64.499 2435.9 64.2739 2434.83 63.8241C2432.71 62.9241 2431.22 61.4123 2430.36 59.2887C2429.95 58.2637 2429.74 57.1858 2429.74 56.056C2429.74 54.9261 2429.94 53.7806 2430.34 52.7445C2431.19 50.5938 2432.68 49.0614 2434.81 48.1462C2435.89 47.6866 2437.1 47.4561 2438.44 47.4561C2439.78 47.4561 2440.97 47.6866 2442.03 48.1462C2445.5 49.6608 2447.14 53.0268 2446.99 56.6838C2446.98 56.9347 2446.95 57.1444 2446.91 57.3116H2434.2C2434.26 57.9602 2434.42 58.5355 2434.67 59.0376C2434.92 59.5399 2435.25 59.9691 2435.64 60.3246C2436.04 60.6804 2436.49 60.9524 2436.99 61.1405C2437.5 61.3288 2438.02 61.4231 2438.56 61.4231C2439.4 61.4231 2440.19 61.2189 2440.93 60.8109C2441.68 60.4028 2442.18 59.8647 2442.45 59.1947L2446.06 60.1991C2445.46 61.4547 2444.49 62.4856 2443.16 63.2909C2441.83 64.0967 2440.25 64.4992 2438.41 64.4992V64.499ZM2442.68 54.5809C2442.57 53.3464 2442.11 52.3575 2441.31 51.6148C2440.5 50.8724 2439.53 50.5005 2438.37 50.5005C2437.81 50.5005 2437.28 50.6001 2436.79 50.7987C2436.3 50.9978 2435.86 51.2749 2435.49 51.6304C2435.11 51.9867 2434.8 52.4149 2434.56 52.9174C2434.32 53.4193 2434.18 53.9744 2434.14 54.5806H2442.68V54.5811V54.5809Z" fill="white"/>
<path d="M2432.87 42.5918H2443.88V45.3225H2432.87V42.5918Z" fill="white"/>
<defs>
<linearGradient id="paint0_linear_1786_341" x1="1298.5" y1="158" x2="1298.5" y2="18.5" gradientUnits="userSpaceOnUse">
<stop/>
<stop offset="1" stop-opacity="0"/>
</linearGradient>
</defs>
</svg>
