<svg width="87" height="30" viewBox="0 0 87 30" fill="none" xmlns="http://www.w3.org/2000/svg">
<rect x="1.41075" y="1.41075" width="27.1785" height="27.1785" rx="7.01536" stroke="white" stroke-width="2.8215"/>
<circle cx="15.0095" cy="15.01" r="6.37236" stroke="white" stroke-width="2.72553"/>
<circle cx="23.0326" cy="6.9865" r="1.81382" fill="white" stroke="white" stroke-width="0.0191939"/>
<path d="M68.5293 20.5713C68.5293 21.5428 68.335 22.3964 67.9465 23.1303C67.5571 23.8647 67.023 24.4802 66.3424 24.9765C65.6621 25.4738 64.8736 25.8512 63.9778 26.1102C63.0815 26.3696 62.1256 26.4989 61.1111 26.4989H50V3.5H62.3094C63.1084 3.5 63.8322 3.67298 64.4802 4.01843C65.1278 4.36439 65.6787 4.81192 66.132 5.36254C66.5856 5.9134 66.9363 6.5402 67.185 7.24167C67.4331 7.94364 67.5571 8.65064 67.5571 9.36342C67.5571 10.486 67.2762 11.5392 66.7153 12.5215C66.1531 13.5043 65.333 14.233 64.2531 14.7079C65.5706 15.0963 66.6122 15.7933 67.3793 16.7972C68.1454 17.8017 68.5296 19.0598 68.5296 20.5713H68.5293ZM54.4705 7.32262V13.1209H60.431C61.1868 13.1209 61.8292 12.8615 62.3584 12.3433C62.8869 11.8253 63.1519 11.1126 63.1519 10.2057C63.1519 9.2988 62.909 8.61845 62.4228 8.10002C61.9373 7.58184 61.3379 7.32262 60.6251 7.32262H54.4705ZM64.0266 19.7291C64.0266 19.319 63.9562 18.9248 63.8159 18.5469C63.6756 18.1695 63.4863 17.8399 63.2492 17.5588C63.0116 17.2782 62.731 17.0567 62.4069 16.8948C62.0831 16.7329 61.7268 16.6519 61.3379 16.6519H54.4705V22.7092H61.1114C61.5214 22.7092 61.9051 22.6337 62.2614 22.4824C62.6179 22.3315 62.9254 22.1208 63.1848 21.8508C63.4441 21.581 63.649 21.2625 63.8003 20.8952C63.9512 20.5283 64.0268 20.1396 64.0268 19.7291H64.0266Z" fill="white"/>
<path d="M78.2121 26.4995C76.8942 26.4995 75.7017 26.2744 74.6341 25.8246C72.5199 24.9245 71.029 23.4127 70.1616 21.2892C69.7535 20.2642 69.5496 19.1863 69.5496 18.0564C69.5496 16.9266 69.7482 15.7811 70.146 14.745C70.998 12.5943 72.489 11.0619 74.6185 10.1467C75.6961 9.6871 76.9045 9.45654 78.2438 9.45654C79.5831 9.45654 80.7806 9.6871 81.8374 10.1467C85.311 11.6613 86.9473 15.0273 86.7967 18.6842C86.7859 18.9352 86.7595 19.1448 86.7182 19.312H74.0061C74.0687 19.9607 74.2256 20.536 74.477 21.0381C74.7282 21.5404 75.0522 21.9696 75.45 22.3251C75.8472 22.6809 76.2973 22.9529 76.7999 23.141C77.302 23.3293 77.8244 23.4236 78.3693 23.4236C79.2055 23.4236 79.9957 23.2194 80.7387 22.8113C81.4816 22.4033 81.9892 21.8652 82.261 21.1952L85.8704 22.1996C85.2635 23.4552 84.296 24.4861 82.9673 25.2914C81.6385 26.0972 80.0533 26.4997 78.2121 26.4997V26.4995ZM82.4815 16.5813C82.3764 15.3469 81.9213 14.358 81.1158 13.6153C80.31 12.8729 79.3317 12.501 78.1812 12.501C77.6162 12.501 77.0877 12.6006 76.596 12.7992C76.1039 12.9983 75.67 13.2754 75.2933 13.6309C74.9167 13.9872 74.608 14.4153 74.3674 14.9179C74.1265 15.4198 73.9855 15.9749 73.944 16.5811H82.4815V16.5816V16.5813Z" fill="white"/>
<path d="M72.6781 4.5918H83.6836V7.32249H72.6781V4.5918Z" fill="white"/>
</svg>
